<svg id="Layer_1" data-name="Layer 1" xmlns="http://www.w3.org/2000/svg" viewBox="0 0 256 80"><defs><style>.cls-1{fill:#231f20;}</style></defs><path class="cls-1" d="M55.89,63.39H20.46v-6.3H55.89a3.77,3.77,0,0,0,3.77-3.77V27a3.77,3.77,0,0,0-3.77-3.77H39.36V48.47h-6.3V17H55.89A10.08,10.08,0,0,1,66,27v26.3A10.08,10.08,0,0,1,55.89,63.39Z"/><polygon class="cls-1" points="52.19 51.04 20.42 51.04 20.42 16.95 26.72 16.95 26.72 44.74 45.89 44.74 45.89 33.96 52.19 33.96 52.19 51.04"/><path class="cls-1" d="M86,28.75h4.2V51H86ZM88.14,47h5.35a4.67,4.67,0,0,0,3.2-1,3.52,3.52,0,0,0,1.13-2.81V36.62a3.53,3.53,0,0,0-1.13-2.82,4.67,4.67,0,0,0-3.2-1H88.14v-4h5.25a10.92,10.92,0,0,1,4.76.94,6.54,6.54,0,0,1,3,2.73,8.58,8.58,0,0,1,1,4.32v6.31a8.52,8.52,0,0,1-1,4.2,6.7,6.7,0,0,1-3,2.79,10.6,10.6,0,0,1-4.84,1H88.14Z"/><path class="cls-1" d="M109.45,28.75h4.2V51h-4.2Zm1.52,0h13.41v4H111Zm0,9.2H122.7v4H111Zm0,9h13.41v4H111Z"/><path class="cls-1" d="M136.93,37.32l5-8.57h4.43L139,41.35,133.33,51H128.9Zm0,4.6-.43-.72-7.38-12.45h4.43l5,8.45.58,1L146.71,51h-4.43Z"/><path class="cls-1" d="M152.61,28.75h4.2V51h-4.2ZM154.48,47h13.05v4H154.48Z"/><path class="cls-1" d="M176.54,50.25a7,7,0,0,1-2.86-2.88,8.84,8.84,0,0,1-1-4.32V36.74a8.84,8.84,0,0,1,1-4.32,7,7,0,0,1,2.86-2.88,9.43,9.43,0,0,1,8.53,0,7.08,7.08,0,0,1,2.86,2.88,9,9,0,0,1,1,4.32v6.31a9,9,0,0,1-1,4.32,7.08,7.08,0,0,1-2.86,2.88,9.43,9.43,0,0,1-8.53,0Zm6.26-3.66a3.32,3.32,0,0,0,1.32-1.38,4.34,4.34,0,0,0,.47-2.05V36.63a4.34,4.34,0,0,0-.47-2.05,3.23,3.23,0,0,0-1.32-1.37,4.31,4.31,0,0,0-4,0,3.23,3.23,0,0,0-1.32,1.37,4.22,4.22,0,0,0-.47,2.05v6.53a4.22,4.22,0,0,0,.47,2.05,3.32,3.32,0,0,0,1.32,1.38,4.39,4.39,0,0,0,4,0Z"/><path class="cls-1" d="M202,28.75h2.67L213.17,51h-4.52l-5.33-15.22L198,51h-4.52Zm-4.43,14.67h11.73v4H197.55Z"/><path class="cls-1" d="M219.07,28.75h5.13l8.29,17.08-.36.4V28.75h4V51H231l-8.26-16.81.36-.4V51h-4Z"/></svg>